<svg xmlns="http://www.w3.org/2000/svg" version="1.1" xmlns:xlink="http://www.w3.org/1999/xlink" xmlns:svgjs="http://svgjs.dev/svgjs" width="2000" height="1999" viewBox="0 0 2000 1999"><g transform="matrix(1,0,0,1,-0.431486880466764,-0.4312711370263287)"><svg viewBox="0 0 343 343" data-background-color="#ffffff" preserveAspectRatio="xMidYMid meet" height="1999" width="2000" xmlns="http://www.w3.org/2000/svg" xmlns:xlink="http://www.w3.org/1999/xlink"><g id="tight-bounds" transform="matrix(1,0,0,1,0.0740000000000407,0.07400000000001228)"><svg viewBox="0 0 342.85155851775386 342.85155851775386" height="342.85155851775386" width="342.85155851775386"><g><svg></svg></g><g><svg viewBox="0 0 342.85155851775386 342.85155851775386" height="342.85155851775386" width="342.85155851775386"><g><path d="M0 171.426c0-94.676 76.75-171.426 171.426-171.426 94.676 0 171.426 76.75 171.426 171.426 0 94.676-76.75 171.426-171.426 171.426-94.676 0-171.426-76.75-171.426-171.426zM171.426 331.107c88.19 0 159.682-71.492 159.681-159.681 0-88.19-71.492-159.682-159.681-159.682-88.19 0-159.682 71.492-159.682 159.682 0 88.19 71.492 159.682 159.682 159.681z" data-fill-palette-color="tertiary" fill="#ff0000" stroke="transparent"></path><ellipse rx="164.56874808852186" ry="164.56874808852186" cx="171.42577925887693" cy="171.42577925887693" fill="#ff0000" stroke="transparent" stroke-width="0" fill-opacity="1" data-fill-palette-color="tertiary"></ellipse></g><g transform="matrix(1,0,0,1,64.84655864529837,106.31139716358211)"><svg viewBox="0 0 213.1584412271571 130.22876419058963" height="130.22876419058963" width="213.1584412271571"><g><svg viewBox="0 0 213.1584412271571 130.22876419058963" height="130.22876419058963" width="213.1584412271571"><g><svg viewBox="0 0 213.1584412271571 130.22876419058963" height="130.22876419058963" width="213.1584412271571"><g><svg viewBox="0 0 213.1584412271571 130.22876419058963" height="130.22876419058963" width="213.1584412271571"><g id="textblocktransform"><svg viewBox="0 0 213.1584412271571 130.22876419058963" height="130.22876419058963" width="213.1584412271571" id="textblock"><g><svg viewBox="0 0 213.1584412271571 130.22876419058963" height="130.22876419058963" width="213.1584412271571"><g transform="matrix(1,0,0,1,0,0)"><svg width="213.1584412271571" viewBox="-9 -31.25 51.15 31.25" height="130.22876419058963" data-palette-color="#ffffff"><path d="M13.9-0.15L-7.3-2.4 13.75-2.4 13.9-0.15ZM13.6-5L-7.6-7.25 13.45-7.25 13.6-5ZM12.45-24.2L-8.75-26.45 12.3-26.45 12.45-24.2ZM12.7-19.4L-8.45-21.65 12.6-21.65 12.7-19.4ZM12.15-29L-9-31.25 12.05-31.25 12.15-29ZM13-14.6L-8.15-16.85 12.85-16.85 13-14.6ZM13.3-9.8L-7.85-12.05 13.15-12.05 13.3-9.8ZM13.55-31.25L24.1-31.25 24.1-11.4 24.55-11.4 32.1-31.25 42.15-31.25 29.3 0 15.4 0 13.55-31.25Z" opacity="1" transform="matrix(1,0,0,1,0,0)" fill="#ffffff" class="wordmark-text-0" data-fill-palette-color="quaternary" id="text-0"></path></svg></g></svg></g></svg></g></svg></g><g></g></svg></g></svg></g></svg></g></svg></g><defs></defs></svg><rect width="342.85155851775386" height="342.85155851775386" fill="none" stroke="none" visibility="hidden"></rect></g></svg></g></svg>